<svg width="72" height="72" viewBox="0 0 72 72" fill="none" xmlns="http://www.w3.org/2000/svg">
<path d="M42.18 27.06L44.94 29.82L17.76 57H15V54.24L42.18 27.06ZM52.98 9C52.23 9 51.45 9.3 50.88 9.87L45.39 15.36L56.64 26.61L62.13 21.12C62.4081 20.8425 62.6287 20.5128 62.7793 20.1499C62.9298 19.787 63.0073 19.3979 63.0073 19.005C63.0073 18.6121 62.9298 18.223 62.7793 17.8601C62.6287 17.4972 62.4081 17.1675 62.13 16.89L55.11 9.87C54.51 9.27 53.76 9 52.98 9ZM42.18 18.57L9 51.75V63H20.25L53.43 29.82L42.18 18.57Z" fill="#333333"/>
</svg>
