<svg width="163" height="168" viewBox="0 0 163 168" fill="none" xmlns="http://www.w3.org/2000/svg">
<path d="M101.4 98.21L107.254 76.3L89.0252 63.322L83.1708 85.232L101.4 98.21ZM31.3503 135.016L28.4978 133.693C24.8983 132.088 22.4759 129.425 21.2308 125.706C19.9856 121.987 20.1554 118.363 21.7401 114.835L31.3503 93.59V135.016ZM61.125 145.383C57.3896 145.383 54.193 144.006 51.5352 141.253C48.8774 138.5 47.5462 135.196 47.5417 131.341V98.266L62.5716 140.833C62.9112 141.738 63.2395 142.548 63.5564 143.262C63.8688 143.976 64.308 144.683 64.874 145.383H61.125ZM90.7503 138.593C87.8525 139.694 85.0385 139.608 82.3082 138.334C79.578 137.06 77.6808 134.927 76.6168 131.936L49.0358 53.9C47.9673 50.9133 48.0714 48.02 49.3483 45.22C50.6251 42.42 52.7147 40.4717 55.617 39.375L99.1516 22.953C102.049 21.847 104.857 21.9543 107.573 23.275C110.281 24.5957 112.171 26.7493 113.244 29.736L140.852 107.772C141.925 110.759 141.844 113.652 140.608 116.452C139.372 119.247 137.303 121.196 134.4 122.297L90.7503 138.593Z" fill="#333333"/>
</svg>
