<svg width="86" height="90" viewBox="0 0 86 90" fill="none" xmlns="http://www.w3.org/2000/svg">
<path opacity="0.5" fill-rule="evenodd" clip-rule="evenodd" d="M78.8333 45C78.8333 65.7113 62.7907 82.5 43 82.5C38.9474 82.5053 34.9234 81.7901 31.0997 80.385C29.4878 76.299 28.661 71.9206 28.6667 67.5C28.6568 59.4981 31.3731 51.7546 36.3278 45.66C38.4661 48.9273 41.3336 51.5994 44.6817 53.4448C48.0299 55.2901 51.7576 56.2531 55.5417 56.25C59.5556 56.2521 63.5019 55.1679 66.9972 53.1027C70.4926 51.0376 73.4182 48.0616 75.4901 44.4638C76.3501 42.9788 78.8333 43.2638 78.8333 45Z" fill="#333333"/>
<path d="M7.16669 45C7.16669 61.3463 17.1606 75.2475 31.0998 80.3812C29.4883 76.2964 28.6616 71.9193 28.6667 67.5C28.6667 59.1712 31.5513 51.5475 36.3279 45.66C33.6641 41.6042 32.2419 36.7965 32.25 31.875C32.248 27.6744 33.284 23.5446 35.2574 19.8866C37.2308 16.2287 40.0745 13.167 43.5124 10.9988C44.935 10.0988 44.6591 7.5 43 7.5C23.2093 7.5 7.16669 24.2888 7.16669 45Z" fill="#333333"/>
</svg>
